<?xml version="1.0" encoding="UTF-8"?>
<!DOCTYPE svg PUBLIC "-//W3C//DTD SVG 1.1//EN" "http://www.w3.org/Graphics/SVG/1.1/DTD/svg11.dtd">
<!-- Creator: CorelDRAW X7 -->
<svg xmlns="http://www.w3.org/2000/svg" xml:space="preserve" width="25mm" height="25mm" version="1.1" style="shape-rendering:geometricPrecision; text-rendering:geometricPrecision; image-rendering:optimizeQuality; fill-rule:evenodd; clip-rule:evenodd"
viewBox="0 0 2500 2500"
 xmlns:xlink="http://www.w3.org/1999/xlink">
 <defs>
  <style type="text/css">
   <![CDATA[
    .fil0 {fill:#5D5DFF;fill-rule:nonzero}
   ]]>
  </style>
 </defs>
 <g id="Layer_x0020_1">
  <metadata id="CorelCorpID_0Corel-Layer"/>
  <path class="fil0" d="M1536 1150c-36,0 -571,-6 -581,4l-4 454 12 13c58,0 572,6 582,-4l4 -454 -13 -13zm-462 -67c117,0 234,0 351,0 0,-97 14,-184 -51,-250 -112,-112 -299,-30 -299,125l0 125 -1 0zm215 304c28,173 43,142 -55,142 -59,0 -50,26 -24,-142l-8 -5 -4 -4 -6 -7 -2 -2 -16 -34c-22,-114 165,-132 152,-1 -2,25 -31,53 -37,53zm-60 918l0 0c-351,-118 -560,-325 -709,-644 -137,-314 -176,-727 -119,-1233 4,-15 11,-34 37,-31 146,17 277,12 407,-19l32 -8 0 1 70 -22c302,-104 255,-195 341,-136 95,66 219,129 336,158 340,83 467,-19 475,55 86,767 -13,1605 -828,1879l-42 0zm-765 -1838l-1 4c-47,451 -15,862 118,1164 130,297 347,496 665,605l9 0c753,-256 857,-1021 781,-1773 -296,27 -548,-34 -786,-199 -238,165 -500,228 -786,199zm499 616l45 0c0,-118 -14,-209 71,-297 147,-153 413,-47 413,172l0 125c41,0 124,-5 124,80l0 445c0,44 -36,80 -80,80l-573 0c-43,0 -79,-36 -79,-80l0 -445c0,-44 36,-80 79,-80z"/>
 </g>
</svg>
