<?xml version="1.0" encoding="UTF-8"?>
<!DOCTYPE svg PUBLIC "-//W3C//DTD SVG 1.1//EN" "http://www.w3.org/Graphics/SVG/1.1/DTD/svg11.dtd">
<!-- Creator: CorelDRAW X7 -->
<svg xmlns="http://www.w3.org/2000/svg" xml:space="preserve" width="25mm" height="25mm" version="1.1" style="shape-rendering:geometricPrecision; text-rendering:geometricPrecision; image-rendering:optimizeQuality; fill-rule:evenodd; clip-rule:evenodd"
viewBox="0 0 2500 2500"
 xmlns:xlink="http://www.w3.org/1999/xlink">
 <defs>
  <style type="text/css">
   <![CDATA[
    .fil0 {fill:#5D5DFF;fill-rule:nonzero}
   ]]>
  </style>
 </defs>
 <g id="Layer_x0020_1">
  <metadata id="CorelCorpID_0Corel-Layer"/>
  <path class="fil0" d="M1562 633l0 -248 416 424 -244 0c-93,0 -172,-78 -172,-176zm293 1323l-968 0c-113,0 -206,-95 -206,-212l0 -1235c0,-117 93,-211 206,-211l605 0 0 335c0,136 108,247 242,247l327 0 0 864c0,117 -93,212 -206,212zm-1245 -1408l0 1196c0,155 123,282 277,282l930 0c-17,101 -102,177 -204,177l-968 0c-113,0 -206,-95 -206,-212l0 -1235c0,-105 74,-191 171,-208zm1522 332c0,-9 -2,-17 -10,-25l-603 -616c-1,-1 -2,-2 -3,-3 -7,-6 -15,-9 -24,-9l-605 0c-142,0 -259,109 -275,249 -138,17 -244,136 -244,280l0 1235c0,155 123,282 277,282l968 0c142,0 259,-109 275,-249 138,-17 244,-136 244,-280l0 -864z"/>
 </g>
</svg>
