<?xml version="1.0" encoding="UTF-8"?>
<!DOCTYPE svg PUBLIC "-//W3C//DTD SVG 1.1//EN" "http://www.w3.org/Graphics/SVG/1.1/DTD/svg11.dtd">
<!-- Creator: CorelDRAW X7 -->
<svg xmlns="http://www.w3.org/2000/svg" xml:space="preserve" width="25mm" height="25mm" version="1.1" style="shape-rendering:geometricPrecision; text-rendering:geometricPrecision; image-rendering:optimizeQuality; fill-rule:evenodd; clip-rule:evenodd"
viewBox="0 0 2500 2500"
 xmlns:xlink="http://www.w3.org/1999/xlink">
 <defs>
  <style type="text/css">
   <![CDATA[
    .fil0 {fill:#5D5DFF;fill-rule:nonzero}
   ]]>
  </style>
 </defs>
 <g id="Layer_x0020_1">
  <metadata id="CorelCorpID_0Corel-Layer"/>
  <path class="fil0" d="M2235 1218l-281 0c-35,0 -67,15 -90,38 -23,23 -38,56 -38,91l0 27c0,35 15,67 38,91 23,23 55,37 90,37l281 0 0 -284 0 0zm-1416 -162c48,0 87,39 87,88 0,48 -39,87 -87,87 -35,0 -65,-21 -79,-50l-191 0 -52 64 -11 13 -221 0 0 65 647 0c14,-29 44,-50 78,-50 48,0 87,39 87,87 0,49 -39,88 -87,88 -34,0 -64,-21 -78,-51l-647 0 0 65 221 0 11 14 52 64 191 0c14,-30 44,-51 79,-51 48,0 87,40 87,88 0,48 -39,87 -87,87 -35,0 -65,-20 -79,-50l-225 0 -11 -14 -53 -64 -186 0 0 389c0,36 15,68 38,91 23,23 55,38 90,38l1714 0c36,0 67,-15 91,-38 23,-23 37,-55 37,-91l0 -349 -281 0c-55,0 -105,-22 -142,-59 -36,-37 -59,-88 -59,-143l0 -27c0,-56 23,-107 59,-143 37,-37 87,-60 142,-60l281 0 0 -349c0,-35 -14,-67 -37,-90 -23,-24 -55,-38 -91,-38l-1719 0 -2 0 -3 0 -2 0 -1 0 -2 0 -1 1 -2 0 -2 0 -1 1c-1,0 -2,0 -3,0l-2 0c-1,1 -2,1 -3,1l-1 0 -2 1 -2 0c-1,1 -2,1 -3,1l-1 1 -1 0c-1,0 -3,1 -4,1 -1,0 -1,1 -2,1l-2 1 -1 1c-1,0 -2,0 -3,1l-2 0 -1 1 -1 1c-1,0 -2,1 -3,1l-1 1c-1,0 -2,1 -3,1 -3,1 -5,3 -7,4l-1 1c-6,4 -11,8 -16,12 -1,2 -3,3 -4,5 -2,1 -3,2 -4,4 0,0 -1,1 -1,1l-1 1c-19,22 -31,50 -32,81l0 393 187 0 52 -64 11 -14 226 0c13,-30 44,-50 78,-50l0 -1zm1143 237c37,0 66,30 66,67 0,37 -29,67 -66,67 -36,0 -66,-30 -66,-67 0,-36 30,-67 66,-67zm346 246l0 386c0,56 -22,106 -59,143 -36,37 -86,60 -142,60l-1714 0c-56,0 -106,-23 -142,-60 -37,-37 -59,-87 -59,-143l0 -1130 0 -3c1,-54 22,-105 57,-144 34,-40 83,-68 137,-75l1622 -199c8,-1 16,-2 23,-2 46,0 88,17 120,46 31,28 52,68 58,114 1,8 2,16 2,24l0 66c14,8 27,18 38,30 37,37 59,88 59,143l0 744zm-1476 -946l1279 0c9,0 18,1 26,2l0 -39c0,-5 0,-10 -1,-15 -3,-28 -16,-52 -34,-68 -18,-17 -43,-27 -71,-27 -5,0 -10,1 -15,1l-1184 146 0 0z"/>
 </g>
</svg>
