<?xml version="1.0" encoding="UTF-8"?>
<!DOCTYPE svg PUBLIC "-//W3C//DTD SVG 1.1//EN" "http://www.w3.org/Graphics/SVG/1.1/DTD/svg11.dtd">
<!-- Creator: CorelDRAW X7 -->
<svg xmlns="http://www.w3.org/2000/svg" xml:space="preserve" width="25mm" height="25mm" version="1.1" style="shape-rendering:geometricPrecision; text-rendering:geometricPrecision; image-rendering:optimizeQuality; fill-rule:evenodd; clip-rule:evenodd"
viewBox="0 0 2500 2500"
 xmlns:xlink="http://www.w3.org/1999/xlink">
 <defs>
  <style type="text/css">
   <![CDATA[
    .fil0 {fill:#5D5DFF;fill-rule:nonzero}
   ]]>
  </style>
 </defs>
 <g id="Layer_x0020_1">
  <metadata id="CorelCorpID_0Corel-Layer"/>
  <path class="fil0" d="M1096 2048c0,-12 11,-21 25,-21 15,0 26,9 26,21l0 214c0,12 -11,22 -26,22 -14,0 -25,-10 -25,-22l0 -214zm129 89c0,-12 11,-21 25,-21 14,0 26,9 26,21l0 214c0,12 -12,22 -26,22 -14,0 -25,-10 -25,-22l0 -214zm128 -89c0,-12 11,-21 26,-21 14,0 25,9 25,21l0 214c0,12 -11,22 -25,22 -15,0 -26,-10 -26,-22l0 -214zm172 -724l-27 355 227 98 0 -262c-30,-29 -135,-132 -200,-191zm-289 468c0,1 0,2 0,3 2,17 4,34 5,51 3,25 6,48 9,69 3,-21 6,-45 9,-70 7,-61 12,-131 12,-207 0,-77 -5,-149 -12,-209 -3,-24 -6,-46 -9,-66 -3,20 -6,42 -9,66 -7,61 -12,132 -12,209 0,55 3,107 7,154zm-211 -524l10 129 28 372 117 0c-3,-40 -5,-83 -5,-128l0 -3c0,-79 6,-152 13,-215 14,-123 39,-209 41,-211 9,-12 26,-14 38,-5 7,5 10,14 10,23 8,31 24,102 35,193 7,62 13,136 13,215l0 5c0,44 -2,86 -5,126l117 0 76 -1054c9,-120 -58,-252 -128,-355 -53,-77 -107,-138 -135,-167 -28,29 -82,90 -135,167 -70,103 -137,235 -128,355l38 553zm-250 509l227 -98 -21 -278 -6 -77c-65,59 -170,162 -200,191l0 262zm231 -42l-248 108c-13,5 -29,-1 -35,-14 -1,-4 -2,-8 -2,-11l0 0 0 -314c0,-9 4,-16 9,-21 17,-16 175,-171 240,-225l-36 -539c-11,-135 61,-278 137,-389 74,-109 153,-188 160,-195l0 0 0 0c11,-10 27,-10 38,0l0 0c7,7 86,86 160,195 76,111 148,254 137,389l-36 539c65,54 223,209 240,225 5,5 9,12 9,21l0 314 0 0c0,3 -1,7 -2,11 -6,13 -22,19 -35,14l-248 -108 -5 62c0,14 -12,26 -27,26l-147 0c-1,9 -2,19 -3,28 -15,126 -44,216 -45,217 -11,10 -28,8 -38,-3 -3,-4 -19,-86 -21,-95 -8,-34 -15,-74 -20,-118 -1,-10 -2,-19 -3,-29l-147 0 0 0c-14,0 -26,-11 -27,-25l-5 -63zm304 -997c-16,-15 -37,-25 -60,-25 -23,0 -44,10 -60,25 -15,15 -24,36 -24,60l-1 0c0,23 10,44 25,59 16,16 37,25 60,25l0 0 0 0c23,0 44,-9 60,-25 15,-15 24,-36 24,-59l0 0c0,-24 -9,-45 -24,-60zm-60 -79c38,0 73,16 98,41 25,25 40,59 40,98l0 0c0,38 -15,72 -40,97 -25,25 -60,41 -98,41l0 0 0 0c-38,0 -73,-16 -98,-41 -25,-25 -40,-59 -40,-97l0 0c0,-39 15,-73 40,-98 25,-25 60,-41 98,-41z"/>
 </g>
</svg>
