<svg width="21" height="31" viewBox="0 0 21 31" fill="none" xmlns="http://www.w3.org/2000/svg">
<path fill-rule="evenodd" clip-rule="evenodd" d="M20.6241 30.8648L20.6241 10.3054L17.2057 10.3054L17.2057 13.7131L13.746 13.7131L13.746 10.3054L10.3276 10.3054L10.3276 13.7131L3.45973 13.7131L3.45973 17.162L-7.50174e-07 17.162L-1.34937e-06 30.8699L20.6241 30.8699L20.6241 30.8648ZM3.45973 10.3054L-4.50464e-07 10.3054L-5.99419e-07 13.7131L3.45973 13.7131L3.45973 10.3054ZM6.87815 17.1568L6.87815 24.0082L13.7511 24.0082L13.7511 17.1568L6.87815 17.1568ZM6.87815 10.3054L6.87815 6.85656L3.45973 6.85656L3.45973 10.3054L6.87815 10.3054ZM-1.48955e-07 3.40769L-2.9971e-07 6.85655L3.45973 6.85656L3.45973 3.40769L-1.48955e-07 3.40769ZM6.87299 3.40769L6.87299 3.00428e-07L3.45457 1.51004e-07L3.45457 3.40769L6.87299 3.40769ZM6.87299 3.40769L6.87299 6.85656L10.3327 6.85656L10.3327 3.40769L6.87299 3.40769ZM13.746 10.3054L13.746 6.85656L17.2057 6.85656L17.2057 10.3054L13.746 10.3054Z" fill="#5D5DFF" fill-opacity="0.3"/>
</svg>
