<svg width="120" height="55" viewBox="0 0 120 55" fill="none" xmlns="http://www.w3.org/2000/svg">
<g clip-path="url(#clip0_518_604)">
<path fill-rule="evenodd" clip-rule="evenodd" d="M33.2584 55.0001H34.0151L35.405 51.6309L36.7485 55.0001H37.5052L39.3995 50.1089H38.3905L37.2117 53.3955L35.8682 50.1089H35.0704L33.768 53.3955L32.5481 50.1089H31.3693L33.2636 55.0001H33.2584ZM43.6874 50.1089H42.5498V55.0001H43.6874V50.1089ZM47.4297 50.1089V50.9963H50.4976L47.0899 54.4532V55.0001H52.3456V54.1126H48.8555L52.3456 50.5732V50.1089H47.4245H47.4297ZM57.6064 50.1089L54.8319 55.0001H55.9695L56.5151 53.9475H59.6242L60.2111 55.0001H61.5134L58.6977 50.1089H57.6064ZM57.0196 53.0601L58.1109 51.0376L59.161 53.0601H57.0144H57.0196ZM64.6277 50.1089V55.0001H65.7653V53.1478H66.8154L68.792 55.0001H70.4341L68.164 53.1478H68.8384C69.0494 53.1478 69.4252 53.1478 69.6774 52.9363C69.8061 52.8073 69.9297 52.6009 69.9297 52.2191V51.0376C69.9297 50.8673 69.9297 50.532 69.6362 50.2791C69.4252 50.1089 69.0494 50.1089 68.8384 50.1089H64.6328H64.6277ZM68.3288 50.9499C68.37 50.9499 68.581 50.9499 68.6634 50.9912C68.792 51.1201 68.792 51.244 68.792 51.3265V51.9147C68.792 51.9973 68.792 52.1262 68.6634 52.2088C68.581 52.2913 68.4523 52.2913 68.37 52.2913H65.7653V50.9447H68.3288V50.9499ZM73.7955 50.1089V55.0001H76.6112C77.4091 55.0001 78.1246 54.9175 78.629 54.6183C79.0923 54.3655 79.7203 53.6896 79.7203 52.5132C79.7203 51.796 79.5093 51.2079 79.046 50.7848C78.4128 50.1966 77.5738 50.1089 76.8995 50.1089H73.7903H73.7955ZM74.9331 54.1126V50.9963H76.9509C77.5378 50.9963 78.5467 51.1666 78.5467 52.5132C78.5467 52.8486 78.5055 53.3129 78.1246 53.6534C77.8312 53.9475 77.3267 54.1178 76.6112 54.1178H74.9279L74.9331 54.1126ZM87.591 50.9963V51.5432L88.5999 51.3317V51.1614C88.5999 50.9912 88.5999 50.5732 88.3476 50.3617C88.1366 50.1089 87.6733 50.1089 87.4623 50.1089H84.5179C84.3068 50.1089 83.8847 50.1089 83.6325 50.3204C83.3802 50.5732 83.3802 51.0376 83.3802 51.2491V51.796C83.3802 52.0076 83.3802 52.4719 83.6325 52.7247C83.8847 52.9363 84.3068 52.9363 84.4715 52.9363H87.6682V54.1178H84.1781V53.5296L83.1692 53.7412V53.8701C83.1692 54.0817 83.1692 54.5048 83.4626 54.7576C83.6737 55.0104 84.1369 55.0104 84.3017 55.0104H87.5807C87.7093 55.0104 88.1675 55.0104 88.3785 54.7576C88.5484 54.5873 88.6308 54.2932 88.6308 53.9991V53.1117C88.6308 52.7763 88.5484 52.4771 88.3785 52.312C88.1675 52.0592 87.7454 52.0592 87.4108 52.0592H84.384V51.0066H87.5807L87.591 50.9963Z" fill="white"/>
<path fill-rule="evenodd" clip-rule="evenodd" d="M0 30.9363V41.2604H2.39876V37.3392H4.62766L8.79204 41.2604H12.2409L7.4897 37.3392H8.87955C9.34283 37.3392 10.1407 37.2979 10.6452 36.8749C10.8974 36.6633 11.1908 36.199 11.1908 35.3993V32.9537C11.1908 32.5306 11.1496 31.8134 10.5577 31.3542C10.0944 30.9724 9.33768 30.9312 8.8744 30.9312H0V30.9363ZM7.81915 32.706C7.94784 32.706 8.32361 32.706 8.53466 32.8763C8.78689 33.0465 8.78689 33.3819 8.78689 33.5109V34.775C8.78689 34.9452 8.78689 35.2393 8.53466 35.4509C8.36479 35.5798 8.0302 35.6211 7.86033 35.6211H2.39876V32.7112H7.8243L7.81915 32.706ZM16.1428 30.9363V41.2604H26.7828V39.3617H18.5415V36.751H23.2927V34.9813H18.5415V32.706H26.7004V30.9363H16.1479H16.1428ZM39.9811 32.835V34.775L42.3799 34.3932V33.3819C42.3799 32.9588 42.3799 31.9888 41.7931 31.4419C41.3298 30.9776 40.4907 30.9363 39.8164 30.9363H33.6754C33.001 30.9363 32.162 30.9776 31.6987 31.4419C31.1119 31.9888 31.1119 32.9588 31.1119 33.3819V38.82C31.1119 39.2431 31.1119 40.213 31.6987 40.76C32.162 41.2243 33.001 41.2656 33.6754 41.2656H39.8164C40.4907 41.2656 41.3298 41.2243 41.7931 40.76C42.3799 40.213 42.3799 39.2431 42.3799 38.82V37.6385L39.9811 37.1328V39.3669H33.5055V32.835H39.9811ZM47.2135 38.82C47.2135 39.2431 47.2135 40.213 47.8003 40.76C48.3047 41.2243 49.1026 41.2656 49.7769 41.2656H57.3439C58.0182 41.2656 58.8572 41.2243 59.3617 40.76C59.9073 40.213 59.9073 39.2431 59.9073 38.82V33.3819C59.9073 32.9588 59.9073 31.9888 59.3617 31.4419C58.8572 30.9776 58.0182 30.9363 57.3439 30.9363H49.7769C49.1026 30.9363 48.3047 30.9776 47.8003 31.4419C47.2135 31.9888 47.2135 32.9588 47.2135 33.3819V38.82ZM49.6122 39.3669V32.835H57.5189V39.3669H49.6122ZM67.8191 41.2656H69.4612L75.139 30.9415H72.7402L68.7869 38.4021L64.5813 30.9415H61.848L67.8191 41.2656ZM78.0782 30.9415V41.2656H88.6719V39.3669H80.4307V36.7562H85.1819V34.9865H80.4307V32.7112H88.5896V30.9415H78.0782ZM93.2584 30.9415V41.2656H95.6572V37.3444H97.8861L102.05 41.2656H105.499L100.748 37.3444H102.138C102.601 37.3444 103.399 37.3031 103.904 36.88C104.156 36.6685 104.449 36.2041 104.449 35.4044V32.9588C104.449 32.5357 104.408 31.8186 103.816 31.3594C103.353 30.9776 102.596 30.9363 102.133 30.9363H93.2584V30.9415ZM101.078 32.7112C101.206 32.7112 101.582 32.7112 101.793 32.8814C102.045 33.0517 102.045 33.3871 102.045 33.516V34.7801C102.045 34.9504 102.045 35.2445 101.793 35.456C101.623 35.585 101.289 35.6263 101.119 35.6263H95.652V32.7163H101.078V32.7112ZM117.179 30.9415L113.648 34.9039L110.117 30.9415H106.92L112.258 36.6324V41.2707H114.657V36.6324L119.995 30.9415H117.179Z" fill="white"/>
<path fill-rule="evenodd" clip-rule="evenodd" d="M72.0247 20.6069H51.4653V17.1914H54.873V13.7345H51.4653V10.3189H54.873V3.45685H58.3219V0H72.0298V20.6069H72.0247ZM51.4653 3.45685V0H54.873V3.45685H51.4653ZM58.3167 6.87242H65.1681V13.7397H58.3167V6.87242ZM51.4653 6.87242H48.0165V3.45685H51.4653V6.87242ZM44.5676 0H48.0165V3.45685H44.5676V0ZM44.5676 6.86726H41.1599V3.45169H44.5676V6.86726ZM44.5676 6.86726H48.0165V10.3241H44.5676V6.86726ZM51.4653 13.7345H48.0165V17.1914H51.4653V13.7345Z" fill="#5D5DFF"/>
</g>
<defs>
<clipPath id="clip0_518_604">
<rect width="120" height="55" fill="white"/>
</clipPath>
</defs>
</svg>
