
<svg xmlns="http://www.w3.org/2000/svg" version="1.1" xmlns:xlink="http://www.w3.org/1999/xlink" preserveAspectRatio="none" x="0px" y="0px" width="30px" height="30px" viewBox="0 0 30 30">
<defs/>

<g id="Layer_1">
<g transform="matrix( 1, 0, 0, 1, 4,1.95) ">
<g>
<path stroke="#702F8A" stroke-width="1" stroke-linejoin="round" stroke-linecap="round" fill="none" d="
M 18.7 18.1
L 14.5 16.2 12.9 21.95 12.05 25 21 25 21 21.5
Q 21 20.35 20.35 19.4 19.7 18.5 18.7 18.1 Z
M 14.55 11.3
Q 14.4 12.75 13.4 13.7 12.4 14.65 11 14.65 9.6 14.65 8.55 13.7 7.55 12.75 7.4 11.3
L 7.35 10.7
Q 7.1 10.75 6.8 10.5 6.2 10 6 8.55
L 5.95 8.4
Q 5.95 7.6 6.75 7.5 7 7.5 7 7.2 6.6 4.85 6.7 4.2 6.85 2.55 8.45 2.5 8.55 1.35 10.15 1.1 11.85 0.8 13.6 1.95 15.51328125 3.2255859375 15.25 6.2 15.2123046875 6.7240234375 15.1 7.3
L 15.5 7.45
Q 16.15 7.5 15.95 8.55 15.75 10 15.15 10.5
L 14.6 10.7 14.55 11.3 Z
M 15.25 6.2
Q 14.6 4.6 12.4 4.75 9.95 4.85 9.35 4.2
M 9.65 25
L 8.925 21.975 7.5 16.2 3.25 18.2
Q 2.25 18.6 1.6 19.55 1 20.5 1 21.6
L 1 25 9.65 25 12.05 25
M 8.925 21.975
L 10.15 17.5 11.8 17.5 12.9 21.95
M 15.85 22.05
L 17.6 22.05"/>
</g>
</g>
</g>
</svg>
