<svg width="276" height="56" viewBox="0 0 276 56" fill="none" xmlns="http://www.w3.org/2000/svg">
<path d="M28.4172 3.10797C42.3463 3.10797 53.6802 14.2755 53.6802 28C53.6802 41.7245 42.3463 52.892 28.4172 52.892C14.4882 52.892 3.14712 41.7245 3.14712 28C3.14712 14.2755 14.481 3.10797 28.4172 3.10797ZM28.4172 0C12.7175 0 0 12.5378 0 28C0 43.4622 12.7175 56 28.4172 56C44.117 56 56.8273 43.4622 56.8273 28C56.8273 12.5378 44.1098 0 28.4172 0Z" fill="#702F8A"/>
<path d="M23.5353 25.4359C23.5353 22.6741 21.442 20.8163 18.3307 20.8163H13.0401V35.1837H15.7929V30.0343H17.9364L21.1122 35.1837H24.3525L20.8685 29.5399C22.5675 28.7911 23.5353 27.3007 23.5353 25.4359ZM18.1156 27.6044H15.7929V23.2392H18.1156C19.7501 23.2392 20.7251 24.0585 20.7251 25.4289C20.7251 26.7992 19.7716 27.5974 18.1156 27.5974M27.2774 35.1766H30.0517V20.8093H27.2774V35.1766ZM42.5685 27.4914C43.0847 27.11 43.8948 26.2553 43.8948 24.7225C43.8948 22.2714 42.1527 20.8093 39.2422 20.8093H33.8225V35.1766H40.1956C43.099 35.1766 45.0561 33.4955 45.0561 30.995C45.0561 29.2714 44.2174 28.0989 42.5685 27.4914ZM36.5754 23.331H38.9339C40.3318 23.331 41.0989 23.9243 41.0989 25.0121C41.0989 26.0293 40.3032 26.6862 39.0701 26.6862H36.5754V23.331ZM39.9017 32.6549H36.5754V29.0383H39.7512C40.8982 29.0383 42.2674 29.3491 42.2674 30.8466C42.2674 31.998 41.4072 32.6549 39.9089 32.6549" fill="#702F8A"/>
<path d="M40.1956 35.3037H33.6935V20.6892H39.2422C42.2316 20.6892 44.0166 22.2008 44.0166 24.7225C44.0166 26.1635 43.3284 27.0182 42.8123 27.4561C44.3822 28.106 45.178 29.2926 45.178 30.995C45.178 33.5732 43.1779 35.2967 40.1956 35.2967M33.9516 35.0424H40.1956C43.0273 35.0424 44.9271 33.4107 44.9271 30.9879C44.9271 29.328 44.117 28.1837 42.5255 27.6044L42.3033 27.5267L42.4897 27.3855C42.97 27.0323 43.7657 26.2129 43.7657 24.7154C43.7657 22.3491 42.0739 20.9294 39.2422 20.9294H33.9516V35.0424ZM30.1736 35.2967H27.1484V20.6821H30.1736V35.2967ZM27.3993 35.0424H29.9155V20.9294H27.3993V35.0424ZM24.5748 35.2967H21.0333L17.8576 30.1473H15.9148V35.2967H12.9039V20.6821H18.3164C21.5065 20.6821 23.65 22.5893 23.65 25.4218C23.65 27.2866 22.6965 28.7911 21.0333 29.5822L24.5604 35.2967H24.5748ZM21.1839 35.0424H24.1231L20.6821 29.4692L20.8111 29.4127C22.4599 28.6852 23.4062 27.2301 23.4062 25.4218C23.4062 22.7376 21.3631 20.9294 18.3307 20.9294H13.1691V35.0424H15.6639V29.893H18.0081L21.1839 35.0424ZM39.8945 32.775H36.4392V28.9041H39.7368C41.4645 28.9041 42.375 29.5752 42.375 30.8396C42.375 32.1039 41.4645 32.775 39.8874 32.775M36.6901 32.5207H39.8874C41.3283 32.5207 42.1241 31.9203 42.1241 30.8396C42.1241 29.7588 41.3211 29.1584 39.7368 29.1584H36.6901V32.5278V32.5207ZM18.1013 27.7175H15.6567V23.1049H18.1013C19.8146 23.1049 20.8398 23.9738 20.8398 25.4218C20.8398 26.8698 19.8433 27.7175 18.1013 27.7175ZM15.9076 27.4632H18.1013C19.6784 27.4632 20.5817 26.7144 20.5817 25.4147C20.5817 24.115 19.6498 23.3522 18.1013 23.3522H15.9076V27.4632ZM39.0558 26.7992H36.432V23.1968H38.9196C40.382 23.1968 41.2136 23.8537 41.2136 24.998C41.2136 26.1423 40.3677 26.7992 39.0558 26.7992ZM36.6901 26.5449H39.0558C40.21 26.5449 40.9555 25.9374 40.9555 24.998C40.9555 23.7124 39.8515 23.444 38.9196 23.444H36.6901V26.5449Z" fill="#702F8A"/>
<path d="M155.743 42.6004C156.668 41.3219 158.037 40.4178 160.059 40.4178C162.948 40.4178 164.596 42.551 164.596 45.7931V53.0333H161.578V45.9627C161.578 44.3169 160.704 43.1867 159.234 43.1867C157.965 43.1867 157.069 43.999 156.417 44.9526C156.417 45.1504 156.445 45.3481 156.445 45.5177V53.0333H153.427V45.9627C153.427 44.3169 152.553 43.1867 151.083 43.1867C149.814 43.1867 148.968 43.999 148.294 44.9031V53.0333H145.305V40.6579H147.993L148.122 42.0848C148.818 41.2018 150.065 40.4178 151.908 40.4178C153.75 40.4178 154.997 41.2301 155.743 42.6004Z" fill="#702F8A"/>
<path d="M178.87 46.7255V47.7568H169.994C170.066 49.7205 171.263 50.8012 173.357 50.8012C174.826 50.8012 175.902 50.1655 176.475 49.3744L178.54 51.0414C177.292 52.5177 175.651 53.2805 173.328 53.2805C169.442 53.2805 166.948 50.5822 166.948 46.8739C166.948 43.1655 169.493 40.4178 173.106 40.4178C176.97 40.4178 178.862 43.2644 178.862 46.7255M169.987 45.6448H175.916C175.844 43.9496 174.848 42.7699 173.048 42.7699C171.249 42.7699 170.081 43.9213 169.98 45.6448" fill="#702F8A"/>
<path d="M192.713 45.7931V53.0333H189.694V45.9627C189.694 44.3169 188.719 43.1867 187.178 43.1867C185.859 43.1867 184.963 43.999 184.339 44.9314V53.0333H181.35V40.6579H184.038L184.16 42.0848C184.855 41.2018 186.132 40.4178 187.945 40.4178C191.014 40.4178 192.705 42.551 192.705 45.7931" fill="#702F8A"/>
<path d="M87.3307 8.46922C87.3307 11.0262 85.8898 12.778 83.8036 13.6044L88.1981 20.6892H84.5707L80.4988 14.113H77.3947V20.6892H74.3121V2.79717H80.8644C84.4417 2.79717 87.3307 4.81736 87.3307 8.46922ZM77.3947 5.44601V11.4642H80.592C82.757 11.4642 84.1764 10.44 84.1764 8.46922C84.1764 6.49849 82.7355 5.44601 80.592 5.44601H77.3947Z" fill="#702F8A"/>
<path d="M101.288 14.4379V15.4622H92.4421C92.5138 17.4046 93.711 18.4783 95.7971 18.4783C97.2667 18.4783 98.3277 17.8426 98.9012 17.0656L100.966 18.7185C99.7184 20.1806 98.0839 20.9364 95.7684 20.9364C91.8901 20.9364 89.4097 18.2593 89.4097 14.5792C89.4097 10.8991 91.9474 8.17255 95.5462 8.17255C99.3958 8.17255 101.281 10.998 101.281 14.4309M92.4349 13.3572H98.342C98.2703 11.6761 97.2739 10.5106 95.4888 10.5106C93.7038 10.5106 92.5353 11.6549 92.4349 13.3572Z" fill="#702F8A"/>
<path d="M123.039 4.4995C123.039 5.55197 122.243 6.30071 121.168 6.30071C120.092 6.30071 119.332 5.5449 119.332 4.4995C119.332 3.45409 120.128 2.69828 121.168 2.69828C122.207 2.69828 123.039 3.45409 123.039 4.4995ZM122.666 20.6963H119.691V8.41978H122.666V20.6963Z" fill="#702F8A"/>
<path d="M138.437 14.5863C138.437 18.2664 135.677 20.9435 131.928 20.9435C128.179 20.9435 125.426 18.2664 125.426 14.5863C125.426 10.9062 128.179 8.17962 131.928 8.17962C135.677 8.17962 138.437 10.8779 138.437 14.5863ZM128.451 14.5863C128.451 16.776 129.914 18.3582 131.928 18.3582C133.942 18.3582 135.426 16.776 135.426 14.5863C135.426 12.3966 133.935 10.7649 131.928 10.7649C129.921 10.7649 128.451 12.3683 128.451 14.5863Z" fill="#702F8A"/>
<path d="M152.538 13.5126V20.6963H149.527V13.6821C149.527 12.0505 148.56 10.9273 147.018 10.9273C145.706 10.9273 144.81 11.7326 144.194 12.6579V20.6963H141.212V8.41978H143.893L144.015 9.83249C144.71 8.95661 145.979 8.17962 147.793 8.17962C150.847 8.17962 152.531 10.2916 152.531 13.5126" fill="#702F8A"/>
<path d="M174.217 2.79717H171.242V20.6963H174.217V2.79717Z" fill="#702F8A"/>
<path d="M164.983 9.85368L165.141 8.41978H167.822V20.6892H165.141L164.983 19.2553C164.288 20.1806 163.026 20.9364 161.134 20.9364C157.736 20.9364 155.42 18.2311 155.42 14.558C155.42 10.885 157.729 8.17962 161.134 8.17962C163.019 8.17962 164.288 8.93542 164.983 9.86075M158.453 14.5651C158.453 16.8749 159.851 18.3653 161.786 18.3653C163.277 18.3653 164.166 17.5883 164.84 16.5358V12.5873C164.166 11.5419 163.277 10.7649 161.786 10.7649C159.843 10.7649 158.453 12.2482 158.453 14.5651Z" fill="#702F8A"/>
<path d="M113.103 8.41978L112.945 9.85368C112.278 8.93542 110.988 8.17255 109.095 8.17255C105.719 8.17255 103.41 10.8214 103.41 14.4803C103.41 18.1393 105.719 20.8093 109.095 20.8093C110.938 20.8093 112.128 20.1029 112.802 19.3259V20.3502C112.802 22.4904 111.404 23.9526 109.174 23.9526C108.206 23.9526 107.411 23.6842 106.722 23.2674L105.446 25.6408C106.486 26.1847 107.705 26.5308 109.196 26.5308C113.174 26.5308 115.777 24.1715 115.777 20.2725V8.41978H113.095H113.103ZM112.802 16.4016C112.156 17.447 111.239 18.2311 109.748 18.2311C107.812 18.2311 106.414 16.7477 106.414 14.4803C106.414 12.2129 107.805 10.7508 109.748 10.7508C111.239 10.7508 112.156 11.5278 112.802 12.5732V16.4016Z" fill="#702F8A"/>
<path d="M229.173 39.662C229.173 41.5479 228.148 42.7487 227.173 43.2926C229.145 43.8789 230.679 45.1574 230.679 47.7286C230.679 51.0061 228.076 52.8708 224.628 52.8708H216.621V34.8517H223.395C227.094 34.8517 229.173 36.6882 229.173 39.6549M219.717 42.4026H223.166C224.951 42.4026 226.019 41.4208 226.019 40.0222C226.019 38.5247 224.965 37.6418 222.994 37.6418H219.717V42.4026ZM219.717 44.9808V50.0807H224.248C226.248 50.0807 227.524 49.1978 227.524 47.5308C227.524 45.8638 226.327 44.9808 224.047 44.9808H219.717Z" fill="#702F8A"/>
<path d="M242.292 41.9717L242.443 40.5237H245.138V52.8779H242.443L242.292 51.4299C241.597 52.3623 240.321 53.1181 238.421 53.1181C234.994 53.1181 232.672 50.3986 232.672 46.6973C232.672 42.996 234.994 40.2694 238.421 40.2694C240.321 40.2694 241.597 41.0323 242.292 41.9576M235.718 46.6902C235.718 49.0141 237.116 50.5116 239.073 50.5116C240.564 50.5116 241.475 49.7276 242.149 48.6751V44.6983C241.475 43.6458 240.572 42.8618 239.073 42.8618C237.116 42.8618 235.718 44.3522 235.718 46.6831" fill="#702F8A"/>
<path d="M260.444 45.6448V52.8779H257.418V45.8143C257.418 44.1685 256.443 43.0454 254.895 43.0454C253.569 43.0454 252.673 43.8577 252.042 44.7831V52.8708H249.045V40.5167H251.741L251.87 41.9364C252.572 41.0535 253.841 40.2694 255.669 40.2694C258.745 40.2694 260.444 42.4026 260.444 45.6377" fill="#702F8A"/>
<path d="M267.025 47.7356L271.892 40.5237H275.498L271.649 45.7931L276 52.8779H272.552L269.699 48.2936L266.394 52.8779H264.014V34.8587H267.025V47.7356Z" fill="#702F8A"/>
<path d="M77.4664 35.0353H74.3408V53.0545H77.4664V35.0353Z" fill="#702F8A"/>
<path d="M92.8866 45.8214V53.0545H89.8613V45.9909C89.8613 44.3522 88.8935 43.222 87.3379 43.222C86.0116 43.222 85.1155 44.0343 84.4847 44.9667V53.0545H81.4809V40.7003H84.1908L84.3198 42.1201C85.0152 41.2371 86.2912 40.4601 88.1121 40.4601C91.1947 40.4601 92.8866 42.5933 92.8866 45.8285" fill="#702F8A"/>
<path d="M100.865 53.2947H100.772L94.0622 40.6932H97.4388L100.815 47.5378L104.17 40.6932H107.547L100.865 53.2947Z" fill="#702F8A"/>
<path d="M120.021 46.7538V47.7851H111.117C111.196 49.7487 112.393 50.8224 114.493 50.8224C115.97 50.8224 117.046 50.1867 117.619 49.4026L119.698 51.0696C118.443 52.5389 116.795 53.3017 114.472 53.3017C110.565 53.3017 108.063 50.6034 108.063 46.9021C108.063 43.2008 110.615 40.4531 114.242 40.4531C118.121 40.4531 120.028 43.2926 120.028 46.7538M111.124 45.6731H117.081C117.003 43.9778 115.999 42.8052 114.199 42.8052C112.4 42.8052 111.224 43.9566 111.124 45.6731Z" fill="#702F8A"/>
<path d="M131.541 41.8022L130.344 43.9849C129.591 43.3986 128.594 42.9041 127.261 42.9041C126.014 42.9041 125.261 43.2714 125.261 44.1261C125.261 44.9808 125.863 45.2069 127.734 45.6448C130.537 46.3088 131.863 47.4884 131.863 49.3461C131.863 51.7265 129.835 53.2876 126.587 53.2876C124.68 53.2876 122.888 52.7225 121.784 51.7972L123.031 49.5863C123.935 50.3209 125.161 50.8365 126.609 50.8365C127.956 50.8365 128.802 50.4198 128.802 49.5086C128.802 48.6751 128.2 48.3078 126.379 47.891C123.497 47.227 122.25 46.2523 122.25 44.3098C122.25 41.9011 124.15 40.439 127.247 40.439C128.974 40.439 130.552 40.9758 131.527 41.781" fill="#702F8A"/>
<path d="M138.574 40.6932H142.373V43.1937H138.574V48.6609C138.574 49.9112 139.369 50.6458 140.545 50.6458C141.348 50.6458 141.9 50.4692 142.28 50.2503L143.076 52.553C142.452 52.9485 141.52 53.2876 140.28 53.2876C137.398 53.2876 135.57 51.67 135.57 48.6821V43.1937H133.197V40.6932H135.57V35.7417H138.574V40.6932Z" fill="#702F8A"/>
<path d="M203.294 40.6932V43.1937H199.494V48.6609C199.494 49.9112 200.29 50.6458 201.466 50.6458C202.261 50.6458 202.821 50.4692 203.193 50.2503L203.989 52.553C203.365 52.9485 202.433 53.2876 201.193 53.2876C198.319 53.2876 196.483 51.67 196.483 48.6821V43.1937H194.11V40.6932H196.483V35.7417H199.487V40.6932H203.294Z" fill="#702F8A"/>
</svg>
