<svg version="1.1" xmlns="http://www.w3.org/2000/svg" xmlns:xlink="http://www.w3.org/1999/xlink" width="64px" height="64px" viewBox="0,0,256,256"><g fill="#424242" fill-rule="nonzero" stroke="none" stroke-width="1" stroke-linecap="butt" stroke-linejoin="miter" stroke-miterlimit="10" stroke-dasharray="" stroke-dashoffset="0" font-family="none" font-weight="none" font-size="none" text-anchor="none" style="mix-blend-mode: normal"><g transform="scale(4,4)"><path d="M32,10c-12.15,0 -22,9.85 -22,22c0,12.15 9.85,22 22,22c12.15,0 22,-9.85 22,-22c0,-12.15 -9.85,-22 -22,-22zM32,14c9.941,0 18,8.059 18,18c0,9.941 -8.059,18 -18,18c-9.941,0 -18,-8.059 -18,-18c0,-9.941 8.059,-18 18,-18zM31.98438,19.99414c-0.692,0 -1.25355,0.21176 -1.68555,0.63477c-0.433,0.422 -0.63814,0.94998 -0.61914,1.58398l0.31641,11.84766c0.039,1.326 0.71058,1.99023 2.01758,1.99023c1.269,0 1.91364,-0.66328 1.93164,-1.98828l0.375,-11.82031c0.019,-0.634 -0.19644,-1.16761 -0.64844,-1.59961c-0.451,-0.433 -1.0145,-0.64844 -1.6875,-0.64844zM32,38.69141c-1.535,0 -2.50781,1.29744 -2.50781,2.39844c0,1.101 0.93981,2.39844 2.50781,2.39844c1.568,0 2.50781,-1.22744 2.50781,-2.39844c0,-1.171 -0.97281,-2.39844 -2.50781,-2.39844z"></path></g></g></svg>