<svg id="Layer_1" data-name="Layer 1" xmlns="http://www.w3.org/2000/svg" width="455.22" height="99.19" viewBox="0 0 455.22 99.19">
  <title>Color_logo_ru</title>
  <path d="M47.29.57A46.82,46.82,0,1,0,94.11,47.39,46.82,46.82,0,0,0,47.29.57m0,5.19A41.63,41.63,0,1,1,5.66,47.39,41.67,41.67,0,0,1,47.29,5.76" fill="#702f8a"/>
  <path d="M66.21,55.18H60.73V49.13H66c1.89,0,4.14.52,4.14,3,0,1.92-1.41,3-3.89,3ZM60.73,39.6h3.89c2.3,0,3.57,1,3.57,2.8s-1.31,2.8-3.35,2.8H60.73Zm9.87,7a5.59,5.59,0,0,0,2.19-4.63c0-4.1-2.87-6.54-7.66-6.54H56.2v24H66.7c4.79,0,8-2.81,8-7A5.79,5.79,0,0,0,70.6,46.55ZM45.41,59.4H50v-24H45.41ZM30.32,46.73H26.5V39.44h3.82c2.69,0,4.3,1.37,4.3,3.67s-1.57,3.63-4.3,3.63Zm8.93-3.63c0-4.62-3.44-7.72-8.58-7.72H22v24H26.5V50.79H30l5.23,8.61H40.6L34.85,50A7.21,7.21,0,0,0,39.25,43.1ZM257.08,71.81a8.29,8.29,0,0,1,7.1-3.65c4.76,0,7.47,3.57,7.47,9V89.26h-5V77.43c0-2.75-1.44-4.64-3.86-4.64-2.1,0-3.57,1.35-4.64,3,0,.33,0,.66,0,.95V89.26h-5V77.43c0-2.75-1.44-4.64-3.86-4.64-2.09,0-3.49,1.35-4.6,2.87V89.26h-4.93V68.57h4.44l.21,2.38a7.64,7.64,0,0,1,6.24-2.79,6.76,6.76,0,0,1,6.32,3.66m23.48,5.09h9.77c-.12-2.83-1.77-4.8-4.72-4.8a4.82,4.82,0,0,0-5.05,4.8m14.62,1.81v1.72H280.56c.12,3.29,2.09,5.09,5.55,5.09a6.17,6.17,0,0,0,5.13-2.38l3.41,2.79a10.38,10.38,0,0,1-8.58,3.74c-6.41,0-10.51-4.52-10.51-10.72s4.19-10.8,10.14-10.8c6.36,0,9.48,4.76,9.48,10.55M318,77.15V89.26h-5V77.43c0-2.75-1.6-4.64-4.15-4.64a5.61,5.61,0,0,0-4.68,2.92V89.26h-4.92V68.57h4.43l.21,2.38a7.72,7.72,0,0,1,6.24-2.79c5,0,7.84,3.57,7.84,9M128,9.68V19.74h5.27c3.57,0,5.9-1.71,5.9-5s-2.38-5.05-5.9-5.05Zm16.37,5.05a8.86,8.86,0,0,1-5.82,8.59l7.25,11.84h-6l-6.71-11H128v11h-5.08V5.25h10.79c5.9,0,10.65,3.38,10.65,9.49Zm8.43,8.18h9.74c-.12-2.81-1.76-4.76-4.71-4.76a4.78,4.78,0,0,0-5,4.76m14.57,1.79v1.71H152.78c.12,3.25,2.09,5,5.52,5a6.16,6.16,0,0,0,5.12-2.36l3.4,2.77a10.4,10.4,0,0,1-8.56,3.71c-6.39,0-10.47-4.48-10.47-10.63S152,14.25,157.9,14.25c6.34,0,9.45,4.72,9.45,10.46m30.32,10.46h4.9V14.65h-4.9V35.17ZM203.2,8.09a3.05,3.05,0,0,1-6.1,0,3.05,3.05,0,0,1,6.1,0ZM212.11,25c0,3.66,2.41,6.31,5.73,6.31s5.76-2.65,5.76-6.31-2.45-6.39-5.76-6.39-5.73,2.68-5.73,6.39m16.45,0a10.72,10.72,0,0,1-21.44,0,10.72,10.72,0,0,1,21.44,0m23.24-1.79v12h-5V23.45c0-2.72-1.59-4.6-4.13-4.6a5.59,5.59,0,0,0-4.66,2.89V35.17h-4.92V14.65h4.42l.21,2.36A7.7,7.7,0,0,1,244,14.25c5,0,7.81,3.54,7.81,8.92m30.82,12h4.9V5.25h-4.9ZM261.54,24.92c0,3.87,2.3,6.35,5.5,6.35a5.66,5.66,0,0,0,5-3.05v-6.6a5.67,5.67,0,0,0-5-3c-3.2,0-5.5,2.48-5.5,6.35m10.76-7.86.26-2.4H277V35.17h-4.41l-.26-2.4A7.56,7.56,0,0,1,266,35.58c-5.61,0-9.41-4.52-9.41-10.67s3.81-10.67,9.41-10.67a7.57,7.57,0,0,1,6.34,2.81m-86,11a5.61,5.61,0,0,1-5,3.06c-3.19,0-5.49-2.48-5.49-6.27s2.3-6.23,5.49-6.23a5.61,5.61,0,0,1,5,3Zm.49-13.35-.26,2.4a7.51,7.51,0,0,0-6.34-2.8c-5.56,0-9.36,4.43-9.36,10.55s3.8,10.59,9.36,10.59a7.69,7.69,0,0,0,6.1-2.48v1.71a5.64,5.64,0,0,1-6,6,7.5,7.5,0,0,1-4-1.14l-2.1,4a12.85,12.85,0,0,0,6.18,1.48c6.55,0,10.85-3.95,10.85-10.46V14.65h-4.42ZM362.48,75.8v8.53h7.46c3.29,0,5.4-1.48,5.4-4.27s-2-4.26-5.73-4.26Zm0-12.26v8h5.68c2.94,0,4.71-1.64,4.71-4,0-2.5-1.73-4-5-4Zm15.58,3.36a6.78,6.78,0,0,1-3.3,6.07c3.25,1,5.77,3.11,5.77,7.42,0,5.49-4.29,8.6-10,8.6h-13.2V58.87h11.17C374.64,58.87,378.06,61.94,378.06,66.9Zm10.79,11.77c0,3.89,2.3,6.39,5.52,6.39A5.7,5.7,0,0,0,399.43,82V75.34a5.71,5.71,0,0,0-5.06-3.07c-3.22,0-5.52,2.5-5.52,6.4m10.82-7.92.26-2.42h4.44V89h-4.45l-.25-2.41a7.61,7.61,0,0,1-6.38,2.83c-5.65,0-9.48-4.55-9.48-10.74s3.83-10.74,9.48-10.74a7.6,7.6,0,0,1,6.38,2.83m29.91,6.15V89h-5V77.19c0-2.75-1.61-4.63-4.16-4.63a5.63,5.63,0,0,0-4.7,2.91V89H410.8V68.33h4.44l.21,2.38a7.74,7.74,0,0,1,6.26-2.79c5.07,0,7.87,3.57,7.87,9m10.84,3.49,8-12.06h5.94L448,77.15,455.22,89h-5.69l-4.69-7.67L439.39,89h-3.92V58.86h5ZM123,89.28h5.15V59.15H123Zm30.56-12.09V89.28h-5V77.48c0-2.75-1.6-4.63-4.16-4.63a5.63,5.63,0,0,0-4.7,2.91V89.28h-4.95V68.62h4.46L139.4,71a7.75,7.75,0,0,1,6.25-2.78c5.08,0,7.87,3.56,7.87,9m13.14,12.5h-.16L155.46,68.62H161l5.56,11.44,5.52-11.44h5.56Zm16.89-12.75h9.81c-.12-2.83-1.78-4.8-4.75-4.8a4.82,4.82,0,0,0-5.06,4.8m14.67,1.8v1.72H183.55c.13,3.28,2.1,5.08,5.56,5.08a6.19,6.19,0,0,0,5.15-2.37L197.69,86a10.47,10.47,0,0,1-8.61,3.73c-6.43,0-10.55-4.51-10.55-10.7s4.2-10.78,10.18-10.78c6.39,0,9.53,4.76,9.53,10.53m19-8.28-2,3.65a8,8,0,0,0-5.08-1.8c-2.05,0-3.29.61-3.29,2s1,1.8,4.08,2.54c4.62,1.11,6.8,3.08,6.8,6.19,0,4-3.34,6.6-8.69,6.6a12.49,12.49,0,0,1-7.91-2.5l2.06-3.69a9.17,9.17,0,0,0,5.89,2.09c2.22,0,3.62-.69,3.62-2.22s-1-2-4-2.7c-4.74-1.11-6.8-2.75-6.8-6,0-4,3.13-6.47,8.23-6.47a11.2,11.2,0,0,1,7,2.25m11.58-1.84H235v4.19h-6.26v9.14A3.06,3.06,0,0,0,232,85.27a5.55,5.55,0,0,0,2.85-.66l1.31,3.85a8.48,8.48,0,0,1-4.61,1.23c-4.74,0-7.76-2.71-7.76-7.71V72.81h-3.9V68.62h3.9V60.34h5Zm100.38,0h6.26v4.19h-6.26v9.14a3.06,3.06,0,0,0,3.25,3.33,5.55,5.55,0,0,0,2.85-.66l1.31,3.85A8.48,8.48,0,0,1,332,89.69c-4.74,0-7.76-2.71-7.76-7.71V72.81h-3.9V68.62h3.9V60.34h5Z" fill="#702f8a"/>
</svg>
