
<svg xmlns="http://www.w3.org/2000/svg" version="1.1" xmlns:xlink="http://www.w3.org/1999/xlink" preserveAspectRatio="none" x="0px" y="0px" width="30px" height="30px" viewBox="0 0 30 30">
<defs/>

<g id="Layer_1"/>

<g id="Layer_1">
<g transform="matrix( 1, 0, 0, 1, 4.5,2) ">
<g>
<path stroke="#702F8A" stroke-width="1" stroke-linejoin="round" stroke-linecap="round" fill="none" d="
M 18.3 25
L 2.65 25
Q 1.95 25 1.45 24.55 1 24.05 1 23.35
L 1 11.7
Q 1 11 1.45 10.55 1.95 10.05 2.65 10.05
L 3.65 10.05 3.65 7.9
Q 3.65 5.05 5.65 3.05 7.65 1 10.5 1 13.3 1 15.3 3.05 17.3 5.05 17.3 7.9
L 17.3 10.05 18.3 10.05
Q 19 10.05 19.5 10.55 20 11 20 11.7
L 20 23.35
Q 20 24.05 19.5 24.5 19 25 18.3 25 Z
M 10.5 18.45
Q 11.25 18.45 11.8 17.9 12.35 17.35 12.35 16.6 12.35 15.8 11.8 15.25 11.25 14.7 10.5 14.7 9.7 14.7 9.15 15.25 8.6 15.8 8.6 16.6 8.6 17.35 9.15 17.9 9.7 18.45 10.5 18.45
L 10.5 21.75
M 3.65 10.05
L 17.3 10.05"/>
</g>
</g>
</g>
</svg>
