
<svg xmlns="http://www.w3.org/2000/svg" version="1.1" xmlns:xlink="http://www.w3.org/1999/xlink" preserveAspectRatio="none" x="0px" y="0px" width="30px" height="30px" viewBox="0 0 30 30">
<defs/>

<g id="Layer_1">
<g transform="matrix( 1, 0, 0, 1, 3,3) ">
<g>
<path stroke="#702F8A" stroke-width="1" stroke-linejoin="round" stroke-linecap="round" fill="none" d="
M 20.35 7.8
L 1 7.8 1 21.3
Q 1 22 1.5 22.5 2.05 23 2.75 23
L 21.4 23
Q 22.15 23 22.6 22.5 23 22.05 23 21.3
L 23 5.15
Q 23 4.4 22.6 3.95 22.15 3.45 21.4 3.45
L 18.4 3.45 18.4 4.4
Q 18.4 5 17.95 5.45 17.5 5.85 16.85 5.85 16.2 5.85 15.75 5.45 15.3 5 15.3 4.4
L 15.3 2.5
Q 15.3 1.9 15.75 1.45 16.2 1 16.85 1 17.5 1 17.95 1.45 18.4 1.9 18.4 2.5
L 18.4 3.45
M 7.15 5.85
Q 6.5 5.85 6.05 5.45 5.6 5 5.6 4.4
L 5.6 2.5
Q 5.6 1.9 6.05 1.45 6.5 1 7.15 1 7.8 1 8.25 1.45 8.7 1.9 8.7 2.5
L 8.7 4.4
Q 8.7 5 8.25 5.45 7.8 5.85 7.15 5.85 Z
M 5.35 3.45
L 2.8 3.45
Q 2.05 3.45 1.55 3.95 1 4.45 1 5.15
L 1 7.8
M 3.55 14.1
L 7.5 14.1 7.5 10.35
M 3.55 20.45
L 7.5 20.45 7.5 16.7
M 16.15 14.1
L 20.1 14.1 20.1 10.35
M 16.15 20.45
L 20.1 20.45 20.1 16.7
M 9.85 20.45
L 13.8 20.45 13.8 16.7
M 14.85 3.45
L 8.95 3.45
M 9.85 14.1
L 13.8 14.1 13.8 10.35"/>
</g>
</g>
</g>
</svg>
