
<svg xmlns="http://www.w3.org/2000/svg" version="1.1" xmlns:xlink="http://www.w3.org/1999/xlink" preserveAspectRatio="none" x="0px" y="0px" width="30px" height="30px" viewBox="0 0 30 30">
<defs/>

<g id="Layer_1"/>

<g id="Layer_1">
<g transform="matrix( 1, 0, 0, 1, 0,2) ">
<g>
<path stroke="#702F8A" stroke-width="1" stroke-linejoin="round" stroke-linecap="round" fill="none" d="
M 20.05 1
L 3 1
Q 2.2 1 1.6 1.6 1 2.2 1 3
L 1 12.8
Q 1 13.65 1.6 14.2 2.2 14.8 3 14.8
L 3.9 14.8
Q 4.5 14.8 4.85 15.25
L 3.8 19.15
Q 3.95 19.05 7.35 16.75 10.3 14.8 10.6 14.8
L 20.05 14.8
Q 20.9 14.85 21.5 14.25 22.1 13.65 22.1 12.8
L 22.1 3
Q 22.1 2.15 21.5 1.6 20.9 1 20.05 1 Z
M 23.95 6.9
L 26.95 6.9
Q 27.8 6.9 28.4 7.5 29 8.1 29 8.9
L 29 18.7
Q 29 19.5 28.4 20.1 27.8 20.7 26.95 20.7
L 26.05 20.7
Q 25.5 20.7 25.1 21.15
L 26.15 25
Q 25.85 24.85 22.6 22.65 19.65 20.7 19.35 20.7
L 9.9 20.7
Q 9.05 20.7 8.45 20.1 7.85 19.55 7.85 18.7
M 5.6 5.9
L 17.5 5.9
M 5.6 10
L 17.5 10"/>
</g>
</g>
</g>
</svg>
