
<svg xmlns="http://www.w3.org/2000/svg" version="1.1" xmlns:xlink="http://www.w3.org/1999/xlink" preserveAspectRatio="none" x="0px" y="0px" width="30px" height="30px" viewBox="0 0 30 30">
<defs/>

<g id="Layer_1"/>

<g id="Layer_1">
<g transform="matrix( 1, 0, 0, 1, 2.5,2.5) ">
<g>
<g>
<path fill="#702F8A" stroke="none" d="
M 25 12.5
L 24.95 12.45
Q 24.95 8.05 22.2 4.65 19.45 1.25 15.2 0.3
L 15.05 0.3
Q 13.85 0 12.45 0 7.3 0 3.65 3.65 0 7.3 0 12.5 0 17.7 3.65 21.35 7.3 25 12.45 25 17.65 25 21.3 21.35 25 17.7 25 12.5
M 15.7 2.3
L 15.6 1.45
Q 19.25 2.5 21.55 5.45
L 20 6.2
Q 19.4 6.45 19.4 7.15
L 19.4 7.7 16.9 8.8 16.85 8.8 15.95 6.85 15.9 6.85 15.9 6.8 15.95 6.8 16.45 6.55
Q 17.15 6.2 17.05 5.5
L 16.75 3.2
Q 16.7 2.85 16.4 2.55 16.15 2.3 15.75 2.3
L 15.7 2.3
M 7.55 4.45
Q 7.2 4.6 7.1 5
L 6.5 6.7 5.3 6.7
Q 4.75 6.7 4.45 7.25
L 3.35 9.8
Q 2.4 9.65 1.55 9.2
L 1.5 9.15
Q 2.8 4.85 6.8 2.5
L 8.7 3.9 7.55 4.45
M 20.4 7.7
L 20.4 7.1 20.45 7.1 22.1 6.25
Q 23.95 9.05 23.95 12.5
L 23.95 12.55
Q 23.95 14 23.7 14.95
L 23.6 14.95 23.25 15.1 23.1 15.1 17.15 16.35 15.2 16.35
Q 14.55 16.35 14 16.65
L 12.55 17.55 12.45 17.6
Q 12.15 17.9 12.2 18.25 12.3 18.65 12.6 18.8
L 12.85 19.05 13.1 19.6 13.2 20 13.4 20.5
Q 13.45 20.5 13.85 20.7
L 14.25 20.7
Q 14.6 20.7 15.05 20.55
L 16.8 19.75 16.95 21.45 16.8 21.65 15.9 23.15 15.65 23.6
Q 14.05 24 12.45 24 7.7 24 4.35 20.65 1 17.25 1 12.5 1 11.15 1.2 10.15 2.1 10.65 3.3 10.8 3.95 10.8 4.25 10.25
L 5.35 7.7 6.55 7.7
Q 7.2 7.7 7.45 7.1
L 8.05 5.35 9.25 4.7 9.3 4.7
Q 9.75 4.45 9.8 3.95 9.85 3.45 9.4 3.15
L 7.85 2
Q 10 1 12.45 1 13.25 1 14.55 1.2
L 14.7 2.4
Q 14.8 3.3 15.75 3.3
L 15.75 3.35 16.05 5.65 15.5 5.9
Q 15.15 6.1 15 6.5 14.85 6.85 15 7.25
L 15.95 9.25
Q 16.1 9.6 16.5 9.75 16.9 9.9 17.3 9.75
L 19.8 8.65
Q 20.4 8.3 20.4 7.7
M 23.3 16.1
L 23.4 16.1
Q 21.85 20.9 17.15 23.05
L 17.15 23 17.85 21.85 17.95 21.65 17.95 21.45 17.75 19.05 17.7 18.85
Q 17.55 18.6 17.25 18.6
L 17.05 18.6 16.7 18.7 14.6 19.65 14.25 19.7 14.2 19.7 14.05 19.25 13.7 18.55
Q 13.65 18.4 13.4 18.15
L 14.55 17.5
Q 14.8 17.35 15.2 17.35
L 17.3 17.35 23.3 16.1
M 7 16.7
Q 6.8 16.35 6.4 16.25
L 4.7 15.95 4.65 15.95
Q 4.15 15.85 3.85 16.3
L 4.45 19.65 5.05 19.85 5.2 20.7
Q 5.4 21.15 5.75 21.35
L 8.35 22.55
Q 8.8 22.75 9.2 22.5 9.6 22.3 9.65 21.8
L 9.7 21.1 9.7 21.05
Q 9.8 20.55 9.4 20.25
L 8.65 19.65 8.9 18.35
Q 9.05 17.5 8.25 17.25
L 7.15 16.95 7 16.7
M 6.15 17.25
L 6.3 17.45 6.35 17.5
Q 6.55 17.75 6.85 17.9
L 7.9 18.2 7.65 19.5
Q 7.55 20.05 7.95 20.35
L 8.7 21 8.65 21.6 6.2 20.45 6 19.6
Q 5.95 19.1 5.4 18.9
L 4.75 18.7 4.45 17.15 4.6 16.95 6.15 17.25 Z"/>
</g>
</g>
</g>

<g transform="matrix( 1, 0, 0, 1, 2.5,2.5) ">
<g>
<g>
<path fill="#702F8A" stroke="none" d="
M 8.1 11.1
L 7.45 11.1 7.45 13.65 7.5 14.2 5.5 11.1 4.75 11.1 4.75 15.05 5.4 15.05 5.4 12.5 5.35 11.95 5.4 11.95 5.5 12.15 7.4 15.05 8.1 15.05 8.1 11.1 Z"/>
</g>
</g>
</g>

<g transform="matrix( 1, 0, 0, 1, 2.5,2.5) ">
<g>
<g>
<path fill="#702F8A" stroke="none" d="
M 11.3 11.7
L 11.3 11.1 9.2 11.1 9.2 15.05 11.4 15.05 11.4 14.5 9.85 14.5 9.85 13.35 11.2 13.35 11.2 12.8 9.85 12.8 9.85 11.7 11.3 11.7 Z"/>
</g>
</g>
</g>

<g transform="matrix( 1, 0, 0, 1, 2.5,2.5) ">
<g>
<g>
<path fill="#702F8A" stroke="none" d="
M 17.15 11.1
L 16.5 11.1 15.7 14.35 15.65 14 14.9 11.1 14.25 11.1 13.35 14.4 13.3 14 12.6 11.1 11.85 11.1 12.95 15.05 13.7 15.05 14.55 11.9 14.6 12.3 15.35 15.05 16.1 15.05 17.15 11.1 Z"/>
</g>
</g>
</g>

<g transform="matrix( 1, 0, 0, 1, 2.5,2.5) ">
<g>
<g>
<path fill="#702F8A" stroke="none" d="
M 18.35 12.35
L 18.3 12.1 18.4 11.9 18.55 11.7 19.1 11.6
Q 19.6 11.6 20 11.85
L 20 11.2
Q 19.7 11.05 19.1 11.05
L 18.55 11.1 18.1 11.3 17.75 11.65
Q 17.65 11.8 17.65 12.15
L 17.7 12.55 17.9 12.85 18.6 13.3 19.2 13.6 19.4 13.8 19.45 14.05
Q 19.45 14.3 19.25 14.45 19.1 14.6 18.65 14.6
L 18.1 14.5 17.85 14.35
Q 17.75 14.35 17.65 14.2
L 17.65 14.9 17.85 15 18.45 15.1 18.65 15.1 19.25 15.05 19.7 14.85
Q 19.9 14.8 20.05 14.55
L 20.15 14.05 20.05 13.65 19.85 13.3 19.55 13.05 18.8 12.7 18.35 12.35 Z"/>
</g>
</g>
</g>
</g>
</svg>
