
<svg xmlns="http://www.w3.org/2000/svg" version="1.1" xmlns:xlink="http://www.w3.org/1999/xlink" preserveAspectRatio="none" x="0px" y="0px" width="30px" height="30px" viewBox="0 0 30 30">
<defs/>

<g id="Layer_1">
<g transform="matrix( 1, 0, 0, 1, -0.7,4) ">
<g>
<path stroke="#702F8A" stroke-width="1" stroke-linejoin="round" stroke-linecap="round" fill="none" d="
M 29.25 12.15
L 27.3 12.55
Q 26.85 12.65 26.5 12.35 26.1 12.1 26 11.6
L 24.65 4.25
Q 24.6 3.8 24.8 3.4 25.05 3 25.5 2.9
L 27.5 2.5
Q 27.9 2.4 28.3 2.65 28.7 2.95 28.75 3.4
L 30.1 10.75
Q 30.2 11.25 29.95 11.65 29.7 12.05 29.25 12.15 Z
M 9.85 3.95
Q 12.25 4.15 14.025 3.775 16.0087890625 1.8 18.4 1.8 19.3 1.8 20.55 2.35 21.25 2.7 22.85 3.45
M 21.8 14.4
L 22.475 15.125 22.8 15.5
Q 23.2 16 23.8 16 24.4 16.05 24.8 15.6 25.25 15.2 25.3 14.55 25.3 13.95 24.9 13.5
L 24.4 12.9
Q 20.95 8.75 19.05 6.7 18.4 6.05 17.55 5.9 16.65 5.8 15.85 6.3 15.25 6.7 14.75 7.2 13.5 8.35 12.45 7.9
L 11.6 7.2
Q 12.2 5.85 13.35 4.5 13.678515625 4.1056640625 14.025 3.775
M 22.475 15.125
Q 22.85 15.6 22.85 16.25 22.8 16.85 22.4 17.3 21.95 17.7 21.35 17.7 20.8 17.65 20.4 17.2
L 20.05 16.85
Q 20.45 17.3 20.4 17.9 20.35 18.55 19.95 18.95 19.5 19.35 18.95 19.35 18.35 19.35 17.95 18.85
L 17.6 18.5
Q 18 18.95 18 19.6 17.95 20.2 17.5 20.65 16.95 21.2 16.15 20.95
M 2 10.2
L 3.85 11
Q 4.25 11.2 4.7 11 5.1 10.85 5.25 10.4
L 7.9 3.45
Q 8.1 3 7.9 2.55 7.7 2.1 7.3 1.9
L 5.45 1.1
Q 5.05 0.9 4.6 1.1 4.2 1.3 4.05 1.75
L 1.4 8.7
Q 1.2 9.15 1.4 9.6 1.6 10.05 2 10.2 Z
M 9.15 10.95
Q 8.75 10.6 8.2 10.6 7.65 10.6 7.25 11
L 5.95 12.25
Q 5.5 12.65 5.5 13.3 5.45 13.9 5.85 14.35 6.25 14.85 6.85 14.85 7.45 14.85 7.85 14.45
L 9.2 13.2
Q 9.65 12.7 9.65 12.05 9.65 11.4 9.15 10.95 Z
M 11.45 12.8
Q 11.05 12.4 10.5 12.45 9.9 12.45 9.55 12.85
L 9.2 13.2 7.7 14.7
Q 7.25 15.1 7.2 15.75 7.2 16.35 7.6 16.8 7.95 17.3 8.55 17.3 9.15 17.3 9.6 16.9
L 11.5 15
Q 11.95 14.55 11.95 13.9 11.95 13.2 11.45 12.8 Z
M 20.05 16.85
L 19.85 16.65
M 15.45 17.1
Q 15.05 16.7 14.5 16.75 13.9236328125 16.75 13.525 17.125
L 13.5 17.15 12.85 17.85
Q 12.45 18.3 12.4 18.95 12.4 19.55 12.8 20 13.2 20.45 13.75 20.5 14.35 20.5 14.75 20.1
L 15.5 19.3
Q 15.95 18.85 15.95 18.2 15.9 17.5 15.45 17.1 Z
M 13.525 17.125
L 13.75 16.9
Q 14.15 16.45 14.15 15.8 14.1 15.1 13.65 14.7 13.25 14.35 12.7 14.35 12.15 14.4 11.75 14.8
L 10.2 16.35
Q 9.75 16.8 9.75 17.45 9.75 18.05 10.15 18.5 10.55 18.95 11.1 19 11.7 19 12.15 18.55
L 13.5 17.15"/>
</g>
</g>
</g>
</svg>
