
<svg xmlns="http://www.w3.org/2000/svg" version="1.1" xmlns:xlink="http://www.w3.org/1999/xlink" preserveAspectRatio="none" x="0px" y="0px" width="30px" height="30px" viewBox="0 0 30 30">
<defs/>

<g id="Layer_1"/>

<g id="Layer_1">
<g transform="matrix( 1, 0, 0, 1, -0.4,6) ">
<g>
<path stroke="#702F8A" stroke-width="1" stroke-linejoin="round" stroke-linecap="round" fill="none" d="
M 2.25 1.05
L 28.55 1.05
Q 29.1 1.05 29.5 1.4 29.9 1.8 29.9 2.35
L 29.9 15.7
Q 29.9 16.25 29.5 16.65 29.1 17 28.55 17
L 2.25 17
Q 1.7 17 1.3 16.65 0.9 16.25 0.9 15.7
L 0.9 2.35
Q 0.9 1.8 1.3 1.4 1.7 1 2.25 1
L 2.25 1.05 Z
M 9.55 8.65
Q 9.55 6.2 11.3 4.5 13.05 2.75 15.5 2.75 18 2.75 19.75 4.5 21.5 6.2 21.5 8.65
L 21.5 9.4
Q 21.5 11.85 19.75 13.55 18 15.3 15.5 15.3 13.05 15.3 11.3 13.55 9.55 11.85 9.55 9.4
L 9.55 8.65 Z
M 24.7 15.15
Q 25.3 13.5 27.45 12.65
L 27.45 5.4
Q 25.35 4.6 24.7 2.9
M 11.4 8.35
L 12.575 8.35
Q 12.7609375 7.4021484375 13.5 6.7 14.5 5.7 15.9 5.7 16.85 5.7 17.6 6.15
M 11.4 9.7
L 12.55 9.7
Q 12.5 9.3857421875 12.5 9.05 12.5 8.6845703125 12.575 8.35
L 16.45 8.35
M 17.6 11.9
Q 16.85 12.35 15.9 12.35 14.5 12.35 13.5 11.4 12.748828125 10.648828125 12.55 9.7
L 16.45 9.7
M 6.2 2.9
Q 5.6 4.6 3.35 5.45
L 3.35 12.55
Q 5.6 13.4 6.2 15.15"/>
</g>
</g>
</g>
</svg>
