
<svg xmlns="http://www.w3.org/2000/svg" version="1.1" xmlns:xlink="http://www.w3.org/1999/xlink" preserveAspectRatio="none" x="0px" y="0px" width="30px" height="30px" viewBox="0 0 30 30">
<defs/>

<g id="Layer_1"/>

<g id="Layer_1">
<g transform="matrix( 1, 0, 0, 1, 2.5,2) ">
<g>
<path stroke="#702F8A" stroke-width="1" stroke-linejoin="round" stroke-linecap="round" fill="none" d="
M 23.65 8.4
L 16.2 17.35 13.2 18.8 14.1 15.6 21.55 6.65
Q 21.95 6.25 22.5 6.2 23.05 6.15 23.5 6.5 23.9 6.85 23.95 7.4 24 8 23.65 8.4 Z
M 18.7 18.1
L 18.7 23.8
Q 18.7 24.3 18.35 24.65 17.95 25 17.45 25
L 2.25 25
Q 1.75 25 1.35 24.65 1 24.3 1 23.8
L 1 8.2
Q 1 7.15 1.65 6.55
L 6.8 1.4
Q 7.2 1 7.7 1
L 17.45 1
Q 17.95 1 18.35 1.4 18.7 1.75 18.7 2.25
L 18.7 5.8
M 4.1 7.2
L 7.2 7.2 7.2 4.15
M 13.9 11.15
L 4.4 11.15
M 11.9 14.95
L 4.4 14.95
M 11.05 18.7
L 4.4 18.7"/>
</g>
</g>
</g>
</svg>
