
<svg xmlns="http://www.w3.org/2000/svg" version="1.1" xmlns:xlink="http://www.w3.org/1999/xlink" preserveAspectRatio="none" x="0px" y="0px" width="30px" height="30px" viewBox="0 0 30 30">
<defs/>

<g id="Layer_1"/>

<g id="Layer_1">
<g transform="matrix( 1, 0, 0, 1, 1.75,2) ">
<g>
<path stroke="#702F8A" stroke-width="1" stroke-linejoin="round" stroke-linecap="round" fill="none" d="
M 23.95 7.55
Q 25 7.8 25.6 8.7 26.2 9.5 26.1 10.6
L 25.85 13.65
Q 25.75 14.4 25.25 14.95 24.7 15.45 23.825 15.45
L 23.55 22.85
Q 23.55 23.3 23.2 23.6 22.85 23.9 22.4 23.9 21.9 23.9 21.6 23.6 21.25546875 23.25546875 21.25 22.825 21.24453125 23.25546875 20.9 23.6 20.55 23.9 20.05 23.9 19.6 23.9 19.25 23.6 18.9 23.3 18.9 22.85
L 18.65 17.05
M 23.05 4.3
Q 23.05 3.5 22.55 2.95 22 2.4 21.25 2.4 20.5 2.4 19.95 2.95 19.4 3.5 19.4 4.3 19.4 5.1 19.95 5.9 20.5 6.7 21.25 6.7 21.95 6.7 22.55 5.9 23.05 5.1 23.05 4.3 Z
M 21.25 22.825
L 21.25 16.6
M 24 10.45
L 23.825 15.45
M 15.45 3.1
Q 15.45 2.25 14.85 1.6 14.25 1 13.4 1 12.6 1 12 1.6 11.4 2.25 11.4 3.1 11.4 4.05 12 4.95 12.6 5.85 13.4 5.85 14.2 5.85 14.85 4.95 15.45 4.05 15.45 3.1 Z
M 16.2 6.7
L 16.45 6.75
Q 17.65 7.05 18.3 8 18.95 8.95 18.85 10.15
L 18.55 13.55
Q 18.5 14.4 17.95 15 17.35 15.55 16.3 15.55
L 16 23.85
Q 16 24.35 15.6 24.65 15.25 25 14.7 25 14.15 25 13.8 24.65 13.4068359375 24.3060546875 13.4 23.825 13.39453125 24.3546875 13.05 24.65 12.65 25 12.1 25 11.6 25 11.2 24.65 10.85 24.35 10.8 23.85
L 10.525 15.55
Q 9.5 15.55 8.9 15 8.35 14.45 8.25 13.55
L 7.95 10.15
Q 7.85 8.95 8.5 8 9.2 7.05 10.4 6.75
M 3.8 4.3
Q 3.8 3.5 4.35 2.95 4.85 2.4 5.6 2.4 6.35 2.4 6.9 2.95 7.45 3.5 7.45 4.3 7.45 5.1 6.9 5.9 6.3 6.7 5.6 6.7 4.9 6.7 4.35 5.9 3.8 5.1 3.8 4.3 Z
M 2.9 7.55
Q 1.85 7.8 1.25 8.7 0.65 9.55 0.75 10.6
L 1 13.65
Q 1.05 14.4 1.6 14.95 2.1 15.45 3.025 15.45
L 2.85 10.45
M 8.2 17.05
L 7.95 22.85
Q 7.85 23.9 6.75 23.9 6.3 23.9 5.95 23.6 5.60546875 23.25546875 5.6 22.825 5.59453125 23.25546875 5.25 23.6 4.95 23.9 4.45 23.9 3.95 23.9 3.65 23.6 3.3 23.3 3.3 22.85
L 3.025 15.45
M 5.6 22.825
L 5.6 16.6
M 13.4 23.825
L 13.4 16.85
M 10.35 10
L 10.525 15.55
M 16.5 10
L 16.3 15.55"/>
</g>
</g>
</g>
</svg>
