<svg width="182" height="66" fill="none" xmlns="http://www.w3.org/2000/svg"><path d="m112.663 17.723-1.426 6.68h5.607l-.947 4.422h-5.606l-2.205 10.333c-.611 2.835-.156 4.325 2.097 4.325a9.361 9.361 0 0 0 2.36-.288l-.875 4.518c-.934.336-2.516.576-4.384.576-2.157 0-3.822-.72-4.673-1.922-.958-1.346-1.078-3.46-.419-6.536l2.348-11.006h-3.354l.946-4.422h3.354l1.127-5.287 6.05-1.393ZM120.606 37.764c-.755 4.23 2.156 6.056 5.894 6.056 2.731 0 4.78-.385 6.697-1.058v4.086c-2.193.817-5.116 1.441-8.458 1.441-7.572 0-11.034-4.662-9.501-11.823 1.39-6.488 6.625-12.592 14.089-12.592s8.722 6.248 7.632 11.39c-.24 1.106-.516 1.971-.731 2.5h-15.622Zm11.141-4.133c.515-2.163.312-5.72-3.618-5.72-3.642 0-5.882 3.317-6.637 5.72h10.255ZM155.049 47.088c-1.366.577-3.942 1.201-6.865 1.201-7.284 0-11.034-4.662-9.476-11.919 1.497-7.017 7.463-12.496 15.658-12.496 2.156 0 4.253.481 5.463 1.106l-2.001 4.421c-.862-.432-2.156-.913-4.265-.913-4.504 0-7.895 3.317-8.757 7.594-1.031 4.806 1.497 7.545 5.523 7.545 2.06 0 3.594-.432 4.84-.913l-.12 4.374ZM170.767 13.685l-2.983 13.938h.096a10.823 10.823 0 0 1 3.498-2.691 9.286 9.286 0 0 1 4.253-1.058c3.977 0 7.584 2.644 5.978 10.141l-2.947 13.794h-5.894l2.803-13.12c.731-3.413.024-5.96-3.235-5.96-2.3 0-4.253 1.538-5.259 3.316-.299.48-.479 1.105-.623 1.778l-2.983 13.986h-5.942l7.284-34.124h5.954ZM122.738 58.67c.156-.852.347-1.898.563-2.931h-.036a58.321 58.321 0 0 1-1.378 2.764l-1.461 2.787h-1.258L119 58.526c-.06-.84-.084-1.85-.048-2.787h-.024c-.251.961-.515 2.067-.754 2.956l-.707 2.715h-1.486l1.977-7.137h2.144l.192 2.38c.048.828.084 1.717.06 2.546h.036c.383-.829.827-1.766 1.222-2.559l1.27-2.379h2.108l-1.138 7.137h-1.569l.479-2.727h-.024ZM137.102 57.758c-.503 2.342-2.216 3.76-4.3 3.76-2.085 0-3.008-1.598-2.576-3.64.455-2.14 2.156-3.737 4.265-3.737 2.108 0 3.031 1.646 2.611 3.617Zm-5.163.096c-.3 1.393.144 2.379 1.222 2.379s1.929-1.034 2.228-2.427c.276-1.286-.108-2.38-1.21-2.38-1.102 0-1.941 1.034-2.24 2.428ZM143.68 54.357c.443-.084 1.305-.144 2.108-.144.983 0 1.57.096 2.013.396.443.265.695.758.551 1.394-.132.637-.635 1.226-1.498 1.526v.024c.755.229 1.234.841 1.031 1.755-.144.648-.539 1.153-1.067 1.513-.611.409-1.521.65-2.935.65-.79 0-1.377-.049-1.725-.109l1.498-7.017.024.012Zm.335 5.9c.156.024.348.024.623.024.731 0 1.438-.277 1.593-1.034.156-.72-.431-1.009-1.234-1.009h-.551l-.431 2.019Zm1.21-3.172c.851 0 1.378-.349 1.486-.877.119-.541-.24-.83-.971-.83a4.06 4.06 0 0 0-.695.049l-.359 1.658h.539ZM156.475 54.261l-1.522 7.137h-1.617l1.521-7.137h1.618ZM162.644 54.261h1.618l-1.234 5.78h2.827l-.287 1.357h-4.445l1.521-7.137ZM176.062 58.382h-2.623l-.36 1.695h2.923l-.287 1.321h-4.541l1.522-7.137h4.397l-.288 1.322h-2.779l-.312 1.478h2.624l-.276 1.31v.011Z" fill="#fff"/><path d="M91.733 38.185c0-18.66 15.083-33.787 33.689-33.787 9.68 0 18.401 4.097 24.547 10.657C143.728 5.96 133.269 0 121.432 0 102.3 0 86.797 15.548 86.797 34.736c0 13.758 7.967 25.64 19.528 31.264-8.805-6.092-14.58-16.28-14.58-27.827l-.012.012Z" fill="#E00618"/><path d="M3.63 30.843c.515-2.403.887-4.373 1.15-6.296h3.738l-.587 3.845h.096c1.617-2.21 4.768-4.373 8.602-4.373 3.21 0 7.787 1.922 6.074 9.9l-2.971 13.89h-4.217l2.863-13.41c.802-3.748.084-6.872-3.894-6.872-2.78 0-5.355 1.97-6.577 4.325-.3.53-.551 1.25-.707 1.971L4.217 47.809H0l3.63-16.966ZM29.687 36.947c-1.126 5.72 2.013 8.074 6.23 8.074 3.019 0 4.948-.528 6.673-1.201l.072 3.028c-1.63.672-4.337 1.441-8.027 1.441-7.14 0-10.399-4.71-8.901-11.727 1.497-7.016 6.804-12.543 13.561-12.543 7.572 0 8.159 6.68 7.236 10.958-.18.865-.419 1.537-.563 1.97H29.675h.012Zm13.01-3.028c.624-2.691.372-6.873-4.372-6.873-4.265 0-6.973 3.941-7.943 6.873h12.316ZM53.72 24.547l.539 11.823c.12 2.596.227 4.999.144 7.402h.143c1.03-2.355 2.336-4.855 3.63-7.354l6.326-11.87h3.546l1.102 11.63c.264 2.788.42 5.239.444 7.594h.143c.887-2.355 2.037-4.806 3.39-7.546l5.8-11.679h4.168L70.648 47.81h-3.834L65.64 36.707c-.264-2.596-.443-4.903-.431-7.642h-.096c-1.174 2.787-2.408 5.19-3.75 7.69l-6.098 11.054h-3.834l-2.024-23.262h4.313Z" fill="#fff"/></svg>